# xmcd
#
# Track frame offsets:
#	150
#	14687
#	38712
#	53028
#	70154
#	88467
#	96348
#	113716
#	138657
#	153347
#	167002
#	187936
#	207144
#	215667
#	232907
#	238164
#	253020
#	284637
#
# Disc length: 4550 seconds
# Revision: 0
# Processed by: cddbd v1.5.2PL0 Copyright (c) Steve Scherf et al.
# Submitted via: dBpowerAMP V12.0
#
DISCID=0911c412
DTITLE=Greg Tamblyn - Saving the World from Whiny Victim Love Songs
DYEAR=2003
DGENRE=Country
TTITLE0=The Shootout At The I'm OK, You're OK Corral
TTITLE1=Common Side Effects Include
TTITLE2=My Life Is A Beer Commercial
TTITLE3=Writer's Block
TTITLE4=The Great Liver Standoff of 1965
TTITLE5=Control Issues (Intro)
TTITLE6=Railroad Bill
TTITLE7=Top 10 Whiny Victim Love Songs
TTITLE8=I'd Like To Be The Man My Dog Things I Am
TTITLE9=Passing Trains
TTITLE10=Clyde, My Inner Guide
TTITLE11=I Thought I Would Miss Her
TTITLE12=A Few Words About Dying More Than Once
TTITLE13=Near Death Experience
TTITLE14=Dr. Jerko (Intro)
TTITLE15=Type A-Ness (duet with Dr. Jerko)
TTITLE16=My Ride Home from Neptune
TTITLE17=DATA
EXTD=
EXTT0=
EXTT1=
EXTT2=
EXTT3=
EXTT4=
EXTT5=
EXTT6=
EXTT7=
EXTT8=
EXTT9=
EXTT10=
EXTT11=
EXTT12=
EXTT13=
EXTT14=
EXTT15=
EXTT16=
EXTT17=
PLAYORDER=
